<svg id="Layer_1" data-name="Layer 1" xmlns="http://www.w3.org/2000/svg" viewBox="0 0 551.79 105.44"><title>logo</title><path d="M43.15,101.94c-12.43,0-22.24-3.46-29.17-10.29S3.5,75,3.5,62.6s3.27-22.16,9.72-29S28.54,23.25,39.53,23.25c10.67,0,19.14,3.38,25.17,10s9,15.53,9,26.49v6.58c0,3.53-2.07,5.64-5.55,5.64H28.69a13.74,13.74,0,0,0,4.72,7c2.87,2.27,6.75,3.42,11.55,3.42A36,36,0,0,0,61,78.64,6,6,0,0,1,63.66,78c1.24,0,3.51.53,4.69,4.11l2.33,7.13c.9,3-.25,5.5-3.16,7A52.21,52.21,0,0,1,43.15,101.94Zm8-46.46c-.14-4-1.11-7.12-2.88-9.31s-4.6-3.45-8.33-3.45c-9,0-11.41,6.76-12.19,12.76Z" fill="#ed6a47" stroke="#ed6a47" stroke-miterlimit="10" stroke-width="7"/><path d="M45,84.48a37.71,37.71,0,0,0,16.91-4q3.36-1.62,4.65,2.28l2.33,7.12q.9,3-2.2,4.56a50.17,50.17,0,0,1-23.5,5.51q-18,0-27.83-9.74T5.44,62.6q0-17.87,9.17-27.6t24.92-9.73q15.24,0,23.76,9.4t8.53,25.11v6.58Q71.82,70,68.2,70h-42a16.57,16.57,0,0,0,6,10.68Q37.08,84.48,45,84.48Zm-5-43.77q-13.05,0-14.34,16.78H53.09v-.94q0-7.51-3.36-11.68T39.92,40.71Z" fill="#fff"/><path d="M117.4,101.81c-11.57,0-20.86-3.4-27.61-10.09S79.56,75.15,79.56,62.46,83,40.07,89.65,33.35s15.84-10.1,27.24-10.1c9.1,0,16.4,1.73,21.68,5.14,2.84,1.72,3.84,4.43,2.72,7.41l-3.64,8.67a5,5,0,0,1-4.76,3.42A8.07,8.07,0,0,1,130,47.3l-.08,0A26.5,26.5,0,0,0,119.34,45c-9.87,0-14.46,5.54-14.46,17.45,0,6.07,1.28,10.58,3.8,13.4s6,4.19,10.66,4.19a22.91,22.91,0,0,0,11.11-2.59l.07,0,.07,0a6.94,6.94,0,0,1,2.82-.68c1.23,0,3.48.47,4.76,3.62l3.6,8.43c.68,1.73,1.21,4.93-2.63,7.6a31.52,31.52,0,0,1-9.58,3.9A48.9,48.9,0,0,1,117.4,101.81Z" fill="#ed6a47" stroke="#ed6a47" stroke-miterlimit="10" stroke-width="7"/><path d="M81.5,62.46Q81.5,44.34,91,34.8t25.9-9.53q13.17,0,20.66,4.83c2.07,1.26,2.71,2.91,1.94,5l-3.62,8.59c-.86,2.15-2.58,2.74-5.16,1.75A28.27,28.27,0,0,0,119.34,43q-16.4,0-16.4,19.47,0,9.95,4.33,14.77t12.07,4.84a24.67,24.67,0,0,0,12-2.82q3.61-1.62,5,1.88L140,89.59c.78,2,.13,3.67-1.93,5.1a29.85,29.85,0,0,1-9,3.62,46.54,46.54,0,0,1-11.69,1.48q-16.65,0-26.28-9.53T81.5,62.46Z" fill="#fff"/><path d="M155.37,100.33c-3.4,0-5.42-2.16-5.42-5.77V7.14c0-3.53,2-5.64,5.42-5.64h13.95c3.48,0,5.55,2.11,5.55,5.64V94.56c0,3.61-2.07,5.77-5.55,5.77Z" fill="#ed6a47" stroke="#ed6a47" stroke-miterlimit="10" stroke-width="3"/><path d="M169.32,3.51H155.37c-2.32,0-3.49,1.21-3.49,3.63V94.56c0,2.5,1.17,3.75,3.49,3.75h13.95q3.62,0,3.61-3.75V7.14Q172.93,3.51,169.32,3.51Z" fill="#fff" stroke="#ed6a47" stroke-miterlimit="10"/><path d="M223.56,101.94c-12.43,0-22.24-3.46-29.16-10.29S183.91,75,183.91,62.6s3.27-22.16,9.72-29S209,23.25,219.94,23.25c10.67,0,19.14,3.38,25.17,10s9.06,15.53,9.06,26.49v6.58c0,3.53-2.08,5.64-5.56,5.64H209.1a13.74,13.74,0,0,0,4.72,7c2.87,2.27,6.75,3.42,11.55,3.42a36,36,0,0,0,16.08-3.83,6,6,0,0,1,2.62-.67c1.24,0,3.51.53,4.69,4.11l2.33,7.13c.91,3-.25,5.5-3.16,7A52.21,52.21,0,0,1,223.56,101.94Zm8-46.46c-.15-4-1.12-7.12-2.89-9.31s-4.6-3.45-8.33-3.45c-9,0-11.41,6.76-12.19,12.76Z" fill="#ed6a47" stroke="#ed6a47" stroke-miterlimit="10" stroke-width="3"/><path d="M219.94,25.27Q204.19,25.27,195,35t-9.17,27.6q0,17.85,9.88,27.59t27.83,9.74a50.17,50.17,0,0,0,23.5-5.51q3.1-1.61,2.2-4.56l-2.33-7.12q-1.29-3.9-4.65-2.28a37.71,37.71,0,0,1-16.91,4q-7.89,0-12.72-3.82a16.58,16.58,0,0,1-6-10.68h42q3.62,0,3.62-3.62V59.78q0-15.72-8.53-25.11T219.94,25.27ZM233.5,57.49H206q1.29-16.79,14.34-16.78,6.45,0,9.81,4.16t3.36,11.68Z" fill="#fff" stroke="#ed6a47" stroke-miterlimit="10"/><path d="M297.81,101.81c-11.57,0-20.86-3.4-27.61-10.09S260,75.15,260,62.46s3.4-22.39,10.09-29.11,15.84-10.1,27.24-10.1c9.1,0,16.4,1.73,21.68,5.14,2.84,1.72,3.84,4.43,2.72,7.41l-3.64,8.67a5,5,0,0,1-4.76,3.42,8.07,8.07,0,0,1-2.85-.59l-.08,0A26.5,26.5,0,0,0,299.75,45c-9.87,0-14.46,5.54-14.46,17.45,0,6.07,1.28,10.58,3.8,13.4s6,4.19,10.66,4.19a22.91,22.91,0,0,0,11.11-2.59l.07,0,.07,0a7,7,0,0,1,2.83-.68c1.22,0,3.47.47,4.75,3.62l3.6,8.43c.69,1.73,1.22,4.93-2.63,7.6a31.52,31.52,0,0,1-9.58,3.9A48.9,48.9,0,0,1,297.81,101.81Z" fill="#ed6a47" stroke="#ed6a47" stroke-miterlimit="10" stroke-width="3"/><path d="M316.8,81.13q-1.43-3.5-5-1.88a24.67,24.67,0,0,1-12,2.82q-7.74,0-12.07-4.84t-4.33-14.77q0-19.47,16.4-19.47a28.27,28.27,0,0,1,11.37,2.42c2.58,1,4.3.4,5.16-1.75l3.62-8.59c.77-2.06.13-3.71-1.94-5q-7.48-4.83-20.66-4.83-16.41,0-25.9,9.53t-9.49,27.66q0,18.27,9.62,27.8t26.28,9.53a46.54,46.54,0,0,0,11.69-1.48,29.85,29.85,0,0,0,9-3.62c2.06-1.43,2.71-3.13,1.93-5.1Z" fill="#fff" stroke="#ed6a47" stroke-miterlimit="10"/><path d="M358.12,101.54c-8.3,0-14.49-1.93-18.37-5.72s-5.91-10.21-5.91-19V47h-4c-3.48,0-5.55-2.11-5.55-5.64V32.65c0-3.61,2.07-5.77,5.55-5.77h4.26V12.65c0-3.28,2.08-5.24,5.56-5.24h12.91c3.48,0,5.55,2,5.55,5.24V26.88H369c3.4,0,5.43,2.16,5.43,5.77v8.73c0,3.53-2,5.64-5.43,5.64H358.38V74.41c0,3.52.69,4.82,1.1,5.28s1.52,1.17,4.71,1.17a11.59,11.59,0,0,0,2.27-.3,15.08,15.08,0,0,1,2.9-.37c2.94,0,4.78,2,4.9,5.29l.52,8.88v.06a5.24,5.24,0,0,1-1.4,4,8.16,8.16,0,0,1-3.19,1.72l-.08,0A46.15,46.15,0,0,1,358.12,101.54Z" fill="#ed6a47" stroke="#ed6a47" stroke-miterlimit="10" stroke-width="3"/><path d="M369.36,82.2a12.9,12.9,0,0,0-2.52.34,13.82,13.82,0,0,1-2.65.33c-3,0-5.06-.6-6.13-1.81s-1.62-3.42-1.62-6.65V45H369q3.5,0,3.49-3.63V32.65c0-2.5-1.16-3.76-3.49-3.76H356.19V12.65q0-3.22-3.62-3.23H339.66c-2.42,0-3.62,1.08-3.62,3.23V28.89h-6.2c-2.41,0-3.61,1.26-3.61,3.76v8.73q0,3.63,3.61,3.63h5.94V76.83q0,12.36,5.3,17.52t17,5.17a44.14,44.14,0,0,0,11.5-1.34,6.31,6.31,0,0,0,2.45-1.28,3.29,3.29,0,0,0,.78-2.48l-.52-8.86Q372.2,82.2,369.36,82.2Z" fill="#fff" stroke="#ed6a47" stroke-miterlimit="10"/><path d="M387.57,21.64c-3.4,0-5.43-2.16-5.43-5.77V7.41c0-3.53,2-5.64,5.43-5.64H401.9c3.4,0,5.43,2.11,5.43,5.64v8.46c0,3.61-2,5.77-5.43,5.77Z" fill="#ed6a47" stroke="#ed6a47" stroke-miterlimit="10" stroke-width="3"/><path d="M401.9,3.78H387.57q-3.49,0-3.49,3.63v8.46q0,3.76,3.49,3.76H401.9q3.5,0,3.49-3.76V7.41Q405.39,3.78,401.9,3.78Z" fill="#fff" stroke="#ed6a47" stroke-miterlimit="10"/><path d="M387.7,100.33c-3.4,0-5.43-2.16-5.43-5.77V30.5c0-3.53,2-5.64,5.43-5.64h14.07c3.4,0,5.43,2.11,5.43,5.64V94.56c0,3.61-2,5.77-5.43,5.77Z" fill="#ed6a47" stroke="#ed6a47" stroke-miterlimit="10" stroke-width="3"/><path d="M401.77,26.88H387.7q-3.49,0-3.49,3.62V94.56q0,3.75,3.49,3.75h14.07q3.5,0,3.49-3.75V30.5Q405.26,26.89,401.77,26.88Z" fill="#fff" stroke="#ed6a47" stroke-miterlimit="10"/><path d="M454.2,101.81c-11.57,0-20.86-3.4-27.61-10.09s-10.23-16.57-10.23-29.26,3.4-22.39,10.09-29.11,15.83-10.1,27.24-10.1c9.1,0,16.4,1.73,21.68,5.14,2.84,1.72,3.84,4.43,2.72,7.41l-3.64,8.67a5,5,0,0,1-4.76,3.42,8.07,8.07,0,0,1-2.85-.59l-.08,0A26.5,26.5,0,0,0,456.14,45c-9.87,0-14.46,5.54-14.46,17.45,0,6.07,1.28,10.58,3.8,13.4s6,4.19,10.66,4.19a22.91,22.91,0,0,0,11.11-2.59l.07,0,.07,0a6.94,6.94,0,0,1,2.82-.68c1.23,0,3.48.47,4.76,3.62l3.6,8.43c.68,1.73,1.22,4.93-2.63,7.6a31.52,31.52,0,0,1-9.58,3.9A48.9,48.9,0,0,1,454.2,101.81Z" fill="#ed6a47" stroke="#ed6a47" stroke-miterlimit="10" stroke-width="3"/><path d="M473.19,81.13q-1.43-3.5-5-1.88a24.67,24.67,0,0,1-12,2.82q-7.74,0-12.07-4.84t-4.33-14.77q0-19.47,16.4-19.47a28.27,28.27,0,0,1,11.37,2.42c2.58,1,4.3.4,5.16-1.75l3.62-8.59c.77-2.06.13-3.71-1.94-5q-7.49-4.83-20.66-4.83-16.41,0-25.9,9.53T418.3,62.46q0,18.27,9.62,27.8t26.28,9.53a46.54,46.54,0,0,0,11.69-1.48,29.85,29.85,0,0,0,9-3.62c2.06-1.43,2.71-3.13,1.93-5.1Z" fill="#fff" stroke="#ed6a47" stroke-miterlimit="10"/><path d="M506,101.4c-7.07,0-12.87-2-17.21-5.86s-6.68-9.71-6.68-17.1a24.87,24.87,0,0,1,2.35-11.13,20.44,20.44,0,0,1,6.22-7.57,29,29,0,0,1,10.09-4.34A87.18,87.18,0,0,1,513,53.27c3.59-.36,8-.6,13-.71V52c0-3.46-1.18-8.06-11.37-8.06a49.75,49.75,0,0,0-17.88,3.62,6.13,6.13,0,0,1-2.42.56c-1.27,0-3.54-.54-4.54-4.13l-2.57-8.29c-1-3,.11-5.59,3.1-7a66.38,66.38,0,0,1,27.41-5.42c21.6,0,32.55,9.26,32.55,27.53V94.56c0,3.61-2,5.77-5.43,5.77H533.11a5.2,5.2,0,0,1-5.52-4.61l-.22-1.66C522.33,98.94,515.16,101.4,506,101.4Zm20-33.11c-7.09.26-12.33,1-15.59,2.3A6.23,6.23,0,0,0,506,77a5.57,5.57,0,0,0,1.9,4.51,8.57,8.57,0,0,0,5.85,1.81c4.18,0,7.3-1,9.28-3.11a11.37,11.37,0,0,0,3-8.31Z" fill="#ed6a47" stroke="#ed6a47" stroke-miterlimit="10" stroke-width="3"/><path d="M517.74,25.27q-15,0-26.6,5.23Q488,32,489.07,35.07l2.59,8.33c.68,2.5,2.15,3.26,4.39,2.28a51.19,51.19,0,0,1,18.59-3.76q13.3,0,13.31,10.07v2.55q-8.79.14-14.79.74a84.67,84.67,0,0,0-11.95,2.08,27,27,0,0,0-9.42,4,18.36,18.36,0,0,0-5.62,6.85A22.7,22.7,0,0,0,484,78.44q0,10.22,6,15.58T506,99.39q15.75,0,22.73-9.94l.77,5.91a3.27,3.27,0,0,0,3.62,3h11.75q3.5,0,3.49-3.75V50.78Q548.35,25.27,517.74,25.27ZM528,71.86a13.46,13.46,0,0,1-3.56,9.74c-2.36,2.46-5.92,3.69-10.65,3.69a10.34,10.34,0,0,1-7.1-2.28A7.66,7.66,0,0,1,504.05,77a8.19,8.19,0,0,1,5.69-8.25q5.67-2.22,18.21-2.49Z" fill="#fff" stroke="#ed6a47" stroke-miterlimit="10"/></svg>